<!--
  - Copyright Notice for SwtPra10
  - Copyright (c) at ThunderGames | SwtPra10 2021
  - File created on 21.12.21, 13:57 by Carina Latest changes made by Carina on 21.12.21, 13:55 All contents of "logo-s.svg" are protected by copyright. The copyright law, unless expressly indicated otherwise, is
  - at ThunderGames | SwtPra10. All rights reserved
  - Any type of duplication, distribution, rental, sale, award,
  - Public accessibility or other use
  - requires the express written consent of ThunderGames | SwtPra10.
  -->

<svg height="52.6" id="Layer_1" version="1.1" width="37.3" x="0" xmlns="http://www.w3.org/2000/svg"
     y="0" xml:space="preserve"><path d="M12.4 13c.2-.7.8-1.1 1.5-1.1h19.9c1 0 1.7.9 1.5 1.9l-8.2 32.5c-.2.7-.8 1.1-1.5 1.1h-20c-1 0-1.7-.9-1.5-1.9L12.4 13z"/>
    <path
            d="M16.4 1.3c-.2 0-.4 0-.6.1-.7.3-1.1 1.1-.9 1.8l5.4 19.5H7.1c-.6 0-1.1.3-1.4.9-.3.5-.2 1.2.2 1.6l18.8 24.4c.3.4.8.6 1.2.6.2 0 .5-.1.7-.2.7-.4 1-1.2.7-1.9l-5.9-17.7H33c.6 0 1.1-.3 1.4-.8.3-.5.3-1.1-.1-1.6L17.8 2.1c-.3-.5-.8-.8-1.4-.8z"
            fill="#ffd600"/></svg>