<svg version="1.1" id="Layer_1" xmlns="http://www.w3.org/2000/svg" x="0" y="0" width="37.3" height="52.6" xml:space="preserve"><path d="M12.4 13c.2-.7.8-1.1 1.5-1.1h19.9c1 0 1.7.9 1.5 1.9l-8.2 32.5c-.2.7-.8 1.1-1.5 1.1h-20c-1 0-1.7-.9-1.5-1.9L12.4 13z"/><path d="M16.4 1.3c-.2 0-.4 0-.6.1-.7.3-1.1 1.1-.9 1.8l5.4 19.5H7.1c-.6 0-1.1.3-1.4.9-.3.5-.2 1.2.2 1.6l18.8 24.4c.3.4.8.6 1.2.6.2 0 .5-.1.7-.2.7-.4 1-1.2.7-1.9l-5.9-17.7H33c.6 0 1.1-.3 1.4-.8.3-.5.3-1.1-.1-1.6L17.8 2.1c-.3-.5-.8-.8-1.4-.8z" fill="#ffd600"/></svg>