<?xml version="1.0" encoding="UTF-8" ?>
<!--
  - Copyright Notice for SwtPra10
  - Copyright (c) at ThunderGames | SwtPra10 2021
  - File created on 21.12.21, 15:22 by Carina Latest changes made by Carina on 21.12.21, 15:21 All contents of "path_southeast.svg" are protected by copyright. The copyright law, unless expressly indicated otherwise, is
  - at ThunderGames | SwtPra10. All rights reserved
  - Any type of duplication, distribution, rental, sale, award,
  - Public accessibility or other use
  - requires the express written consent of ThunderGames | SwtPra10.
  -->

<svg version="1.1" width="64" height="64" xmlns="http://www.w3.org/2000/svg" shape-rendering="crispEdges">
    <rect x="6" y="10" width="1" height="1" fill="#383838"/>
    <rect x="7" y="10" width="1" height="1" fill="#383838"/>
    <rect x="8" y="10" width="1" height="1" fill="#383838"/>
    <rect x="9" y="10" width="1" height="1" fill="#383838"/>
    <rect x="54" y="10" width="1" height="1" fill="#383838"/>
    <rect x="55" y="10" width="1" height="1" fill="#383838"/>
    <rect x="56" y="10" width="1" height="1" fill="#383838"/>
    <rect x="57" y="10" width="1" height="1" fill="#383838"/>
    <rect x="4" y="11" width="1" height="1" fill="#383838"/>
    <rect x="5" y="11" width="1" height="1" fill="#383838"/>
    <rect x="6" y="11" width="1" height="1" fill="#000000"/>
    <rect x="7" y="11" width="1" height="1" fill="#000000"/>
    <rect x="8" y="11" width="1" height="1" fill="#000000"/>
    <rect x="9" y="11" width="1" height="1" fill="#000000"/>
    <rect x="10" y="11" width="1" height="1" fill="#000000"/>
    <rect x="11" y="11" width="1" height="1" fill="#000000"/>
    <rect x="52" y="11" width="1" height="1" fill="#383838"/>
    <rect x="53" y="11" width="1" height="1" fill="#383838"/>
    <rect x="54" y="11" width="1" height="1" fill="#000000"/>
    <rect x="55" y="11" width="1" height="1" fill="#000000"/>
    <rect x="56" y="11" width="1" height="1" fill="#000000"/>
    <rect x="57" y="11" width="1" height="1" fill="#000000"/>
    <rect x="58" y="11" width="1" height="1" fill="#000000"/>
    <rect x="59" y="11" width="1" height="1" fill="#000000"/>
    <rect x="3" y="12" width="1" height="1" fill="#383838"/>
    <rect x="4" y="12" width="1" height="1" fill="#000000"/>
    <rect x="5" y="12" width="1" height="1" fill="#000000"/>
    <rect x="6" y="12" width="1" height="1" fill="#000000"/>
    <rect x="7" y="12" width="1" height="1" fill="#000000"/>
    <rect x="8" y="12" width="1" height="1" fill="#000000"/>
    <rect x="9" y="12" width="1" height="1" fill="#000000"/>
    <rect x="10" y="12" width="1" height="1" fill="#000000"/>
    <rect x="11" y="12" width="1" height="1" fill="#000000"/>
    <rect x="12" y="12" width="1" height="1" fill="#000000"/>
    <rect x="51" y="12" width="1" height="1" fill="#383838"/>
    <rect x="52" y="12" width="1" height="1" fill="#000000"/>
    <rect x="53" y="12" width="1" height="1" fill="#000000"/>
    <rect x="54" y="12" width="1" height="1" fill="#000000"/>
    <rect x="55" y="12" width="1" height="1" fill="#000000"/>
    <rect x="56" y="12" width="1" height="1" fill="#000000"/>
    <rect x="57" y="12" width="1" height="1" fill="#000000"/>
    <rect x="58" y="12" width="1" height="1" fill="#000000"/>
    <rect x="59" y="12" width="1" height="1" fill="#000000"/>
    <rect x="60" y="12" width="1" height="1" fill="#000000"/>
    <rect x="3" y="13" width="1" height="1" fill="#383838"/>
    <rect x="4" y="13" width="1" height="1" fill="#000000"/>
    <rect x="5" y="13" width="1" height="1" fill="#000000"/>
    <rect x="6" y="13" width="1" height="1" fill="#000000"/>
    <rect x="7" y="13" width="1" height="1" fill="#000000"/>
    <rect x="8" y="13" width="1" height="1" fill="#000000"/>
    <rect x="9" y="13" width="1" height="1" fill="#000000"/>
    <rect x="10" y="13" width="1" height="1" fill="#000000"/>
    <rect x="11" y="13" width="1" height="1" fill="#000000"/>
    <rect x="12" y="13" width="1" height="1" fill="#000000"/>
    <rect x="51" y="13" width="1" height="1" fill="#383838"/>
    <rect x="52" y="13" width="1" height="1" fill="#000000"/>
    <rect x="53" y="13" width="1" height="1" fill="#000000"/>
    <rect x="54" y="13" width="1" height="1" fill="#000000"/>
    <rect x="55" y="13" width="1" height="1" fill="#000000"/>
    <rect x="56" y="13" width="1" height="1" fill="#000000"/>
    <rect x="57" y="13" width="1" height="1" fill="#000000"/>
    <rect x="58" y="13" width="1" height="1" fill="#000000"/>
    <rect x="59" y="13" width="1" height="1" fill="#000000"/>
    <rect x="60" y="13" width="1" height="1" fill="#000000"/>
    <rect x="2" y="14" width="1" height="1" fill="#383838"/>
    <rect x="3" y="14" width="1" height="1" fill="#000000"/>
    <rect x="4" y="14" width="1" height="1" fill="#000000"/>
    <rect x="5" y="14" width="1" height="1" fill="#000000"/>
    <rect x="6" y="14" width="1" height="1" fill="#000000"/>
    <rect x="7" y="14" width="1" height="1" fill="#000000"/>
    <rect x="8" y="14" width="1" height="1" fill="#000000"/>
    <rect x="9" y="14" width="1" height="1" fill="#000000"/>
    <rect x="10" y="14" width="1" height="1" fill="#000000"/>
    <rect x="11" y="14" width="1" height="1" fill="#000000"/>
    <rect x="12" y="14" width="1" height="1" fill="#000000"/>
    <rect x="13" y="14" width="1" height="1" fill="#000000"/>
    <rect x="50" y="14" width="1" height="1" fill="#383838"/>
    <rect x="51" y="14" width="1" height="1" fill="#000000"/>
    <rect x="52" y="14" width="1" height="1" fill="#000000"/>
    <rect x="53" y="14" width="1" height="1" fill="#000000"/>
    <rect x="54" y="14" width="1" height="1" fill="#000000"/>
    <rect x="55" y="14" width="1" height="1" fill="#000000"/>
    <rect x="56" y="14" width="1" height="1" fill="#000000"/>
    <rect x="57" y="14" width="1" height="1" fill="#000000"/>
    <rect x="58" y="14" width="1" height="1" fill="#000000"/>
    <rect x="59" y="14" width="1" height="1" fill="#000000"/>
    <rect x="60" y="14" width="1" height="1" fill="#000000"/>
    <rect x="61" y="14" width="1" height="1" fill="#000000"/>
    <rect x="2" y="15" width="1" height="1" fill="#383838"/>
    <rect x="3" y="15" width="1" height="1" fill="#000000"/>
    <rect x="4" y="15" width="1" height="1" fill="#000000"/>
    <rect x="5" y="15" width="1" height="1" fill="#000000"/>
    <rect x="6" y="15" width="1" height="1" fill="#000000"/>
    <rect x="7" y="15" width="1" height="1" fill="#000000"/>
    <rect x="8" y="15" width="1" height="1" fill="#000000"/>
    <rect x="9" y="15" width="1" height="1" fill="#000000"/>
    <rect x="10" y="15" width="1" height="1" fill="#000000"/>
    <rect x="11" y="15" width="1" height="1" fill="#000000"/>
    <rect x="12" y="15" width="1" height="1" fill="#000000"/>
    <rect x="13" y="15" width="1" height="1" fill="#000000"/>
    <rect x="14" y="15" width="1" height="1" fill="#383838"/>
    <rect x="15" y="15" width="1" height="1" fill="#383838"/>
    <rect x="16" y="15" width="1" height="1" fill="#383838"/>
    <rect x="17" y="15" width="1" height="1" fill="#383838"/>
    <rect x="18" y="15" width="1" height="1" fill="#383838"/>
    <rect x="19" y="15" width="1" height="1" fill="#383838"/>
    <rect x="20" y="15" width="1" height="1" fill="#383838"/>
    <rect x="24" y="15" width="1" height="1" fill="#383838"/>
    <rect x="25" y="15" width="1" height="1" fill="#383838"/>
    <rect x="26" y="15" width="1" height="1" fill="#383838"/>
    <rect x="27" y="15" width="1" height="1" fill="#383838"/>
    <rect x="28" y="15" width="1" height="1" fill="#383838"/>
    <rect x="29" y="15" width="1" height="1" fill="#383838"/>
    <rect x="30" y="15" width="1" height="1" fill="#383838"/>
    <rect x="31" y="15" width="1" height="1" fill="#383838"/>
    <rect x="32" y="15" width="1" height="1" fill="#383838"/>
    <rect x="33" y="15" width="1" height="1" fill="#383838"/>
    <rect x="34" y="15" width="1" height="1" fill="#383838"/>
    <rect x="35" y="15" width="1" height="1" fill="#383838"/>
    <rect x="36" y="15" width="1" height="1" fill="#383838"/>
    <rect x="37" y="15" width="1" height="1" fill="#383838"/>
    <rect x="38" y="15" width="1" height="1" fill="#383838"/>
    <rect x="39" y="15" width="1" height="1" fill="#383838"/>
    <rect x="43" y="15" width="1" height="1" fill="#383838"/>
    <rect x="44" y="15" width="1" height="1" fill="#383838"/>
    <rect x="45" y="15" width="1" height="1" fill="#383838"/>
    <rect x="46" y="15" width="1" height="1" fill="#383838"/>
    <rect x="47" y="15" width="1" height="1" fill="#383838"/>
    <rect x="48" y="15" width="1" height="1" fill="#383838"/>
    <rect x="49" y="15" width="1" height="1" fill="#383838"/>
    <rect x="50" y="15" width="1" height="1" fill="#383838"/>
    <rect x="51" y="15" width="1" height="1" fill="#000000"/>
    <rect x="52" y="15" width="1" height="1" fill="#000000"/>
    <rect x="53" y="15" width="1" height="1" fill="#000000"/>
    <rect x="54" y="15" width="1" height="1" fill="#000000"/>
    <rect x="55" y="15" width="1" height="1" fill="#000000"/>
    <rect x="56" y="15" width="1" height="1" fill="#000000"/>
    <rect x="57" y="15" width="1" height="1" fill="#000000"/>
    <rect x="58" y="15" width="1" height="1" fill="#000000"/>
    <rect x="59" y="15" width="1" height="1" fill="#000000"/>
    <rect x="60" y="15" width="1" height="1" fill="#000000"/>
    <rect x="61" y="15" width="1" height="1" fill="#000000"/>
    <rect x="2" y="16" width="1" height="1" fill="#383838"/>
    <rect x="3" y="16" width="1" height="1" fill="#000000"/>
    <rect x="4" y="16" width="1" height="1" fill="#000000"/>
    <rect x="5" y="16" width="1" height="1" fill="#000000"/>
    <rect x="6" y="16" width="1" height="1" fill="#000000"/>
    <rect x="7" y="16" width="1" height="1" fill="#000000"/>
    <rect x="8" y="16" width="1" height="1" fill="#000000"/>
    <rect x="9" y="16" width="1" height="1" fill="#000000"/>
    <rect x="10" y="16" width="1" height="1" fill="#000000"/>
    <rect x="11" y="16" width="1" height="1" fill="#000000"/>
    <rect x="12" y="16" width="1" height="1" fill="#000000"/>
    <rect x="13" y="16" width="1" height="1" fill="#000000"/>
    <rect x="14" y="16" width="1" height="1" fill="#000000"/>
    <rect x="15" y="16" width="1" height="1" fill="#000000"/>
    <rect x="16" y="16" width="1" height="1" fill="#000000"/>
    <rect x="17" y="16" width="1" height="1" fill="#000000"/>
    <rect x="18" y="16" width="1" height="1" fill="#000000"/>
    <rect x="19" y="16" width="1" height="1" fill="#000000"/>
    <rect x="20" y="16" width="1" height="1" fill="#000000"/>
    <rect x="24" y="16" width="1" height="1" fill="#000000"/>
    <rect x="25" y="16" width="1" height="1" fill="#000000"/>
    <rect x="26" y="16" width="1" height="1" fill="#000000"/>
    <rect x="27" y="16" width="1" height="1" fill="#000000"/>
    <rect x="28" y="16" width="1" height="1" fill="#000000"/>
    <rect x="29" y="16" width="1" height="1" fill="#000000"/>
    <rect x="30" y="16" width="1" height="1" fill="#000000"/>
    <rect x="31" y="16" width="1" height="1" fill="#000000"/>
    <rect x="32" y="16" width="1" height="1" fill="#000000"/>
    <rect x="33" y="16" width="1" height="1" fill="#000000"/>
    <rect x="34" y="16" width="1" height="1" fill="#000000"/>
    <rect x="35" y="16" width="1" height="1" fill="#000000"/>
    <rect x="36" y="16" width="1" height="1" fill="#000000"/>
    <rect x="37" y="16" width="1" height="1" fill="#000000"/>
    <rect x="38" y="16" width="1" height="1" fill="#000000"/>
    <rect x="39" y="16" width="1" height="1" fill="#000000"/>
    <rect x="43" y="16" width="1" height="1" fill="#000000"/>
    <rect x="44" y="16" width="1" height="1" fill="#000000"/>
    <rect x="45" y="16" width="1" height="1" fill="#000000"/>
    <rect x="46" y="16" width="1" height="1" fill="#000000"/>
    <rect x="47" y="16" width="1" height="1" fill="#000000"/>
    <rect x="48" y="16" width="1" height="1" fill="#000000"/>
    <rect x="49" y="16" width="1" height="1" fill="#000000"/>
    <rect x="50" y="16" width="1" height="1" fill="#383838"/>
    <rect x="51" y="16" width="1" height="1" fill="#000000"/>
    <rect x="52" y="16" width="1" height="1" fill="#000000"/>
    <rect x="53" y="16" width="1" height="1" fill="#000000"/>
    <rect x="54" y="16" width="1" height="1" fill="#000000"/>
    <rect x="55" y="16" width="1" height="1" fill="#000000"/>
    <rect x="56" y="16" width="1" height="1" fill="#000000"/>
    <rect x="57" y="16" width="1" height="1" fill="#000000"/>
    <rect x="58" y="16" width="1" height="1" fill="#000000"/>
    <rect x="59" y="16" width="1" height="1" fill="#000000"/>
    <rect x="60" y="16" width="1" height="1" fill="#000000"/>
    <rect x="61" y="16" width="1" height="1" fill="#000000"/>
    <rect x="2" y="17" width="1" height="1" fill="#383838"/>
    <rect x="3" y="17" width="1" height="1" fill="#000000"/>
    <rect x="4" y="17" width="1" height="1" fill="#000000"/>
    <rect x="5" y="17" width="1" height="1" fill="#000000"/>
    <rect x="6" y="17" width="1" height="1" fill="#000000"/>
    <rect x="7" y="17" width="1" height="1" fill="#000000"/>
    <rect x="8" y="17" width="1" height="1" fill="#000000"/>
    <rect x="9" y="17" width="1" height="1" fill="#000000"/>
    <rect x="10" y="17" width="1" height="1" fill="#000000"/>
    <rect x="11" y="17" width="1" height="1" fill="#000000"/>
    <rect x="12" y="17" width="1" height="1" fill="#000000"/>
    <rect x="13" y="17" width="1" height="1" fill="#000000"/>
    <rect x="50" y="17" width="1" height="1" fill="#383838"/>
    <rect x="51" y="17" width="1" height="1" fill="#000000"/>
    <rect x="52" y="17" width="1" height="1" fill="#000000"/>
    <rect x="53" y="17" width="1" height="1" fill="#000000"/>
    <rect x="54" y="17" width="1" height="1" fill="#000000"/>
    <rect x="55" y="17" width="1" height="1" fill="#000000"/>
    <rect x="56" y="17" width="1" height="1" fill="#000000"/>
    <rect x="57" y="17" width="1" height="1" fill="#000000"/>
    <rect x="58" y="17" width="1" height="1" fill="#000000"/>
    <rect x="59" y="17" width="1" height="1" fill="#000000"/>
    <rect x="60" y="17" width="1" height="1" fill="#000000"/>
    <rect x="61" y="17" width="1" height="1" fill="#000000"/>
    <rect x="3" y="18" width="1" height="1" fill="#383838"/>
    <rect x="4" y="18" width="1" height="1" fill="#000000"/>
    <rect x="5" y="18" width="1" height="1" fill="#000000"/>
    <rect x="6" y="18" width="1" height="1" fill="#000000"/>
    <rect x="7" y="18" width="1" height="1" fill="#000000"/>
    <rect x="8" y="18" width="1" height="1" fill="#000000"/>
    <rect x="9" y="18" width="1" height="1" fill="#000000"/>
    <rect x="10" y="18" width="1" height="1" fill="#000000"/>
    <rect x="11" y="18" width="1" height="1" fill="#000000"/>
    <rect x="12" y="18" width="1" height="1" fill="#000000"/>
    <rect x="51" y="18" width="1" height="1" fill="#383838"/>
    <rect x="52" y="18" width="1" height="1" fill="#000000"/>
    <rect x="53" y="18" width="1" height="1" fill="#000000"/>
    <rect x="54" y="18" width="1" height="1" fill="#000000"/>
    <rect x="55" y="18" width="1" height="1" fill="#000000"/>
    <rect x="56" y="18" width="1" height="1" fill="#000000"/>
    <rect x="57" y="18" width="1" height="1" fill="#000000"/>
    <rect x="58" y="18" width="1" height="1" fill="#000000"/>
    <rect x="59" y="18" width="1" height="1" fill="#000000"/>
    <rect x="60" y="18" width="1" height="1" fill="#000000"/>
    <rect x="3" y="19" width="1" height="1" fill="#383838"/>
    <rect x="4" y="19" width="1" height="1" fill="#000000"/>
    <rect x="5" y="19" width="1" height="1" fill="#000000"/>
    <rect x="6" y="19" width="1" height="1" fill="#000000"/>
    <rect x="7" y="19" width="1" height="1" fill="#000000"/>
    <rect x="8" y="19" width="1" height="1" fill="#000000"/>
    <rect x="9" y="19" width="1" height="1" fill="#000000"/>
    <rect x="10" y="19" width="1" height="1" fill="#000000"/>
    <rect x="11" y="19" width="1" height="1" fill="#000000"/>
    <rect x="12" y="19" width="1" height="1" fill="#000000"/>
    <rect x="51" y="19" width="1" height="1" fill="#383838"/>
    <rect x="52" y="19" width="1" height="1" fill="#000000"/>
    <rect x="53" y="19" width="1" height="1" fill="#000000"/>
    <rect x="54" y="19" width="1" height="1" fill="#000000"/>
    <rect x="55" y="19" width="1" height="1" fill="#000000"/>
    <rect x="56" y="19" width="1" height="1" fill="#000000"/>
    <rect x="57" y="19" width="1" height="1" fill="#000000"/>
    <rect x="58" y="19" width="1" height="1" fill="#000000"/>
    <rect x="59" y="19" width="1" height="1" fill="#000000"/>
    <rect x="60" y="19" width="1" height="1" fill="#000000"/>
    <rect x="4" y="20" width="1" height="1" fill="#383838"/>
    <rect x="5" y="20" width="1" height="1" fill="#383838"/>
    <rect x="6" y="20" width="1" height="1" fill="#000000"/>
    <rect x="7" y="20" width="1" height="1" fill="#000000"/>
    <rect x="8" y="20" width="1" height="1" fill="#000000"/>
    <rect x="9" y="20" width="1" height="1" fill="#000000"/>
    <rect x="10" y="20" width="1" height="1" fill="#000000"/>
    <rect x="11" y="20" width="1" height="1" fill="#000000"/>
    <rect x="52" y="20" width="1" height="1" fill="#383838"/>
    <rect x="53" y="20" width="1" height="1" fill="#000000"/>
    <rect x="54" y="20" width="1" height="1" fill="#000000"/>
    <rect x="55" y="20" width="1" height="1" fill="#000000"/>
    <rect x="56" y="20" width="1" height="1" fill="#000000"/>
    <rect x="57" y="20" width="1" height="1" fill="#000000"/>
    <rect x="58" y="20" width="1" height="1" fill="#000000"/>
    <rect x="59" y="20" width="1" height="1" fill="#000000"/>
    <rect x="6" y="21" width="1" height="1" fill="#383838"/>
    <rect x="7" y="21" width="1" height="1" fill="#383838"/>
    <rect x="8" y="21" width="1" height="1" fill="#383838"/>
    <rect x="9" y="21" width="1" height="1" fill="#383838"/>
    <rect x="10" y="21" width="1" height="1" fill="#383838"/>
    <rect x="11" y="21" width="1" height="1" fill="#000000"/>
    <rect x="12" y="21" width="1" height="1" fill="#000000"/>
    <rect x="51" y="21" width="1" height="1" fill="#383838"/>
    <rect x="52" y="21" width="1" height="1" fill="#000000"/>
    <rect x="54" y="21" width="1" height="1" fill="#383838"/>
    <rect x="55" y="21" width="1" height="1" fill="#383838"/>
    <rect x="56" y="21" width="1" height="1" fill="#383838"/>
    <rect x="57" y="21" width="1" height="1" fill="#383838"/>
    <rect x="11" y="22" width="1" height="1" fill="#383838"/>
    <rect x="12" y="22" width="1" height="1" fill="#000000"/>
    <rect x="51" y="22" width="1" height="1" fill="#383838"/>
    <rect x="52" y="22" width="1" height="1" fill="#000000"/>
    <rect x="11" y="23" width="1" height="1" fill="#383838"/>
    <rect x="12" y="23" width="1" height="1" fill="#000000"/>
    <rect x="13" y="23" width="1" height="1" fill="#000000"/>
    <rect x="50" y="23" width="1" height="1" fill="#383838"/>
    <rect x="51" y="23" width="1" height="1" fill="#000000"/>
    <rect x="52" y="23" width="1" height="1" fill="#000000"/>
    <rect x="12" y="24" width="1" height="1" fill="#383838"/>
    <rect x="13" y="24" width="1" height="1" fill="#000000"/>
    <rect x="14" y="24" width="1" height="1" fill="#000000"/>
    <rect x="49" y="24" width="1" height="1" fill="#383838"/>
    <rect x="50" y="24" width="1" height="1" fill="#000000"/>
    <rect x="51" y="24" width="1" height="1" fill="#000000"/>
    <rect x="13" y="25" width="1" height="1" fill="#383838"/>
    <rect x="14" y="25" width="1" height="1" fill="#000000"/>
    <rect x="49" y="25" width="1" height="1" fill="#383838"/>
    <rect x="50" y="25" width="1" height="1" fill="#000000"/>
    <rect x="13" y="26" width="1" height="1" fill="#383838"/>
    <rect x="14" y="26" width="1" height="1" fill="#000000"/>
    <rect x="15" y="26" width="1" height="1" fill="#000000"/>
    <rect x="48" y="26" width="1" height="1" fill="#383838"/>
    <rect x="49" y="26" width="1" height="1" fill="#000000"/>
    <rect x="50" y="26" width="1" height="1" fill="#000000"/>
    <rect x="14" y="27" width="1" height="1" fill="#383838"/>
    <rect x="15" y="27" width="1" height="1" fill="#000000"/>
    <rect x="48" y="27" width="1" height="1" fill="#383838"/>
    <rect x="49" y="27" width="1" height="1" fill="#000000"/>
    <rect x="14" y="28" width="1" height="1" fill="#383838"/>
    <rect x="15" y="28" width="1" height="1" fill="#000000"/>
    <rect x="48" y="28" width="1" height="1" fill="#383838"/>
    <rect x="49" y="28" width="1" height="1" fill="#000000"/>
    <rect x="17" y="31" width="1" height="1" fill="#383838"/>
    <rect x="18" y="31" width="1" height="1" fill="#000000"/>
    <rect x="45" y="31" width="1" height="1" fill="#383838"/>
    <rect x="46" y="31" width="1" height="1" fill="#000000"/>
    <rect x="17" y="32" width="1" height="1" fill="#383838"/>
    <rect x="18" y="32" width="1" height="1" fill="#000000"/>
    <rect x="45" y="32" width="1" height="1" fill="#383838"/>
    <rect x="46" y="32" width="1" height="1" fill="#000000"/>
    <rect x="17" y="33" width="1" height="1" fill="#383838"/>
    <rect x="18" y="33" width="1" height="1" fill="#000000"/>
    <rect x="19" y="33" width="1" height="1" fill="#000000"/>
    <rect x="44" y="33" width="1" height="1" fill="#383838"/>
    <rect x="45" y="33" width="1" height="1" fill="#000000"/>
    <rect x="46" y="33" width="1" height="1" fill="#000000"/>
    <rect x="18" y="34" width="1" height="1" fill="#383838"/>
    <rect x="19" y="34" width="1" height="1" fill="#000000"/>
    <rect x="20" y="34" width="1" height="1" fill="#000000"/>
    <rect x="43" y="34" width="1" height="1" fill="#383838"/>
    <rect x="44" y="34" width="1" height="1" fill="#000000"/>
    <rect x="45" y="34" width="1" height="1" fill="#000000"/>
    <rect x="19" y="35" width="1" height="1" fill="#383838"/>
    <rect x="20" y="35" width="1" height="1" fill="#000000"/>
    <rect x="43" y="35" width="1" height="1" fill="#383838"/>
    <rect x="44" y="35" width="1" height="1" fill="#000000"/>
    <rect x="19" y="36" width="1" height="1" fill="#383838"/>
    <rect x="20" y="36" width="1" height="1" fill="#000000"/>
    <rect x="21" y="36" width="1" height="1" fill="#000000"/>
    <rect x="42" y="36" width="1" height="1" fill="#383838"/>
    <rect x="43" y="36" width="1" height="1" fill="#000000"/>
    <rect x="44" y="36" width="1" height="1" fill="#000000"/>
    <rect x="20" y="37" width="1" height="1" fill="#383838"/>
    <rect x="21" y="37" width="1" height="1" fill="#000000"/>
    <rect x="22" y="37" width="1" height="1" fill="#000000"/>
    <rect x="41" y="37" width="1" height="1" fill="#383838"/>
    <rect x="42" y="37" width="1" height="1" fill="#000000"/>
    <rect x="43" y="37" width="1" height="1" fill="#000000"/>
    <rect x="21" y="38" width="1" height="1" fill="#383838"/>
    <rect x="22" y="38" width="1" height="1" fill="#000000"/>
    <rect x="41" y="38" width="1" height="1" fill="#383838"/>
    <rect x="42" y="38" width="1" height="1" fill="#000000"/>
    <rect x="21" y="39" width="1" height="1" fill="#383838"/>
    <rect x="22" y="39" width="1" height="1" fill="#000000"/>
    <rect x="23" y="39" width="1" height="1" fill="#000000"/>
    <rect x="40" y="39" width="1" height="1" fill="#383838"/>
    <rect x="41" y="39" width="1" height="1" fill="#000000"/>
    <rect x="42" y="39" width="1" height="1" fill="#000000"/>
    <rect x="22" y="40" width="1" height="1" fill="#383838"/>
    <rect x="41" y="40" width="1" height="1" fill="#000000"/>
    <rect x="25" y="42" width="1" height="1" fill="#000000"/>
    <rect x="38" y="42" width="1" height="1" fill="#383838"/>
    <rect x="24" y="43" width="1" height="1" fill="#383838"/>
    <rect x="25" y="43" width="1" height="1" fill="#000000"/>
    <rect x="38" y="43" width="1" height="1" fill="#383838"/>
    <rect x="39" y="43" width="1" height="1" fill="#000000"/>
    <rect x="24" y="44" width="1" height="1" fill="#383838"/>
    <rect x="25" y="44" width="1" height="1" fill="#000000"/>
    <rect x="26" y="44" width="1" height="1" fill="#000000"/>
    <rect x="37" y="44" width="1" height="1" fill="#383838"/>
    <rect x="38" y="44" width="1" height="1" fill="#000000"/>
    <rect x="39" y="44" width="1" height="1" fill="#000000"/>
    <rect x="25" y="45" width="1" height="1" fill="#383838"/>
    <rect x="26" y="45" width="1" height="1" fill="#000000"/>
    <rect x="37" y="45" width="1" height="1" fill="#383838"/>
    <rect x="38" y="45" width="1" height="1" fill="#000000"/>
    <rect x="25" y="46" width="1" height="1" fill="#383838"/>
    <rect x="26" y="46" width="1" height="1" fill="#000000"/>
    <rect x="27" y="46" width="1" height="1" fill="#000000"/>
    <rect x="36" y="46" width="1" height="1" fill="#383838"/>
    <rect x="37" y="46" width="1" height="1" fill="#000000"/>
    <rect x="38" y="46" width="1" height="1" fill="#000000"/>
    <rect x="26" y="47" width="1" height="1" fill="#383838"/>
    <rect x="27" y="47" width="1" height="1" fill="#000000"/>
    <rect x="28" y="47" width="1" height="1" fill="#000000"/>
    <rect x="35" y="47" width="1" height="1" fill="#383838"/>
    <rect x="36" y="47" width="1" height="1" fill="#000000"/>
    <rect x="37" y="47" width="1" height="1" fill="#000000"/>
    <rect x="27" y="48" width="1" height="1" fill="#383838"/>
    <rect x="28" y="48" width="1" height="1" fill="#000000"/>
    <rect x="35" y="48" width="1" height="1" fill="#383838"/>
    <rect x="36" y="48" width="1" height="1" fill="#000000"/>
    <rect x="27" y="49" width="1" height="1" fill="#383838"/>
    <rect x="28" y="49" width="1" height="1" fill="#000000"/>
    <rect x="30" y="49" width="1" height="1" fill="#383838"/>
    <rect x="31" y="49" width="1" height="1" fill="#383838"/>
    <rect x="32" y="49" width="1" height="1" fill="#383838"/>
    <rect x="33" y="49" width="1" height="1" fill="#383838"/>
    <rect x="35" y="49" width="1" height="1" fill="#000000"/>
    <rect x="36" y="49" width="1" height="1" fill="#000000"/>
    <rect x="28" y="50" width="1" height="1" fill="#383838"/>
    <rect x="29" y="50" width="1" height="1" fill="#383838"/>
    <rect x="30" y="50" width="1" height="1" fill="#000000"/>
    <rect x="31" y="50" width="1" height="1" fill="#000000"/>
    <rect x="32" y="50" width="1" height="1" fill="#000000"/>
    <rect x="33" y="50" width="1" height="1" fill="#000000"/>
    <rect x="34" y="50" width="1" height="1" fill="#000000"/>
    <rect x="35" y="50" width="1" height="1" fill="#000000"/>
    <rect x="27" y="51" width="1" height="1" fill="#383838"/>
    <rect x="28" y="51" width="1" height="1" fill="#000000"/>
    <rect x="29" y="51" width="1" height="1" fill="#000000"/>
    <rect x="30" y="51" width="1" height="1" fill="#000000"/>
    <rect x="31" y="51" width="1" height="1" fill="#000000"/>
    <rect x="32" y="51" width="1" height="1" fill="#000000"/>
    <rect x="33" y="51" width="1" height="1" fill="#000000"/>
    <rect x="34" y="51" width="1" height="1" fill="#000000"/>
    <rect x="35" y="51" width="1" height="1" fill="#000000"/>
    <rect x="36" y="51" width="1" height="1" fill="#000000"/>
    <rect x="27" y="52" width="1" height="1" fill="#383838"/>
    <rect x="28" y="52" width="1" height="1" fill="#000000"/>
    <rect x="29" y="52" width="1" height="1" fill="#000000"/>
    <rect x="30" y="52" width="1" height="1" fill="#000000"/>
    <rect x="31" y="52" width="1" height="1" fill="#000000"/>
    <rect x="32" y="52" width="1" height="1" fill="#000000"/>
    <rect x="33" y="52" width="1" height="1" fill="#000000"/>
    <rect x="34" y="52" width="1" height="1" fill="#000000"/>
    <rect x="35" y="52" width="1" height="1" fill="#000000"/>
    <rect x="36" y="52" width="1" height="1" fill="#000000"/>
    <rect x="26" y="53" width="1" height="1" fill="#383838"/>
    <rect x="27" y="53" width="1" height="1" fill="#000000"/>
    <rect x="28" y="53" width="1" height="1" fill="#000000"/>
    <rect x="29" y="53" width="1" height="1" fill="#000000"/>
    <rect x="30" y="53" width="1" height="1" fill="#000000"/>
    <rect x="31" y="53" width="1" height="1" fill="#000000"/>
    <rect x="32" y="53" width="1" height="1" fill="#000000"/>
    <rect x="33" y="53" width="1" height="1" fill="#000000"/>
    <rect x="34" y="53" width="1" height="1" fill="#000000"/>
    <rect x="35" y="53" width="1" height="1" fill="#000000"/>
    <rect x="36" y="53" width="1" height="1" fill="#000000"/>
    <rect x="37" y="53" width="1" height="1" fill="#000000"/>
    <rect x="6" y="54" width="1" height="1" fill="#383838"/>
    <rect x="7" y="54" width="1" height="1" fill="#383838"/>
    <rect x="8" y="54" width="1" height="1" fill="#383838"/>
    <rect x="9" y="54" width="1" height="1" fill="#383838"/>
    <rect x="10" y="54" width="1" height="1" fill="#383838"/>
    <rect x="11" y="54" width="1" height="1" fill="#383838"/>
    <rect x="12" y="54" width="1" height="1" fill="#383838"/>
    <rect x="13" y="54" width="1" height="1" fill="#383838"/>
    <rect x="14" y="54" width="1" height="1" fill="#383838"/>
    <rect x="15" y="54" width="1" height="1" fill="#383838"/>
    <rect x="19" y="54" width="1" height="1" fill="#383838"/>
    <rect x="20" y="54" width="1" height="1" fill="#383838"/>
    <rect x="21" y="54" width="1" height="1" fill="#383838"/>
    <rect x="22" y="54" width="1" height="1" fill="#383838"/>
    <rect x="23" y="54" width="1" height="1" fill="#383838"/>
    <rect x="24" y="54" width="1" height="1" fill="#383838"/>
    <rect x="25" y="54" width="1" height="1" fill="#383838"/>
    <rect x="26" y="54" width="1" height="1" fill="#383838"/>
    <rect x="27" y="54" width="1" height="1" fill="#000000"/>
    <rect x="28" y="54" width="1" height="1" fill="#000000"/>
    <rect x="29" y="54" width="1" height="1" fill="#000000"/>
    <rect x="30" y="54" width="1" height="1" fill="#000000"/>
    <rect x="31" y="54" width="1" height="1" fill="#000000"/>
    <rect x="32" y="54" width="1" height="1" fill="#000000"/>
    <rect x="33" y="54" width="1" height="1" fill="#000000"/>
    <rect x="34" y="54" width="1" height="1" fill="#000000"/>
    <rect x="35" y="54" width="1" height="1" fill="#000000"/>
    <rect x="36" y="54" width="1" height="1" fill="#000000"/>
    <rect x="37" y="54" width="1" height="1" fill="#000000"/>
    <rect x="6" y="55" width="1" height="1" fill="#000000"/>
    <rect x="7" y="55" width="1" height="1" fill="#000000"/>
    <rect x="8" y="55" width="1" height="1" fill="#000000"/>
    <rect x="9" y="55" width="1" height="1" fill="#000000"/>
    <rect x="10" y="55" width="1" height="1" fill="#000000"/>
    <rect x="11" y="55" width="1" height="1" fill="#000000"/>
    <rect x="12" y="55" width="1" height="1" fill="#000000"/>
    <rect x="13" y="55" width="1" height="1" fill="#000000"/>
    <rect x="14" y="55" width="1" height="1" fill="#000000"/>
    <rect x="15" y="55" width="1" height="1" fill="#000000"/>
    <rect x="19" y="55" width="1" height="1" fill="#000000"/>
    <rect x="20" y="55" width="1" height="1" fill="#000000"/>
    <rect x="21" y="55" width="1" height="1" fill="#000000"/>
    <rect x="22" y="55" width="1" height="1" fill="#000000"/>
    <rect x="23" y="55" width="1" height="1" fill="#000000"/>
    <rect x="24" y="55" width="1" height="1" fill="#000000"/>
    <rect x="25" y="55" width="1" height="1" fill="#000000"/>
    <rect x="26" y="55" width="1" height="1" fill="#383838"/>
    <rect x="27" y="55" width="1" height="1" fill="#000000"/>
    <rect x="28" y="55" width="1" height="1" fill="#000000"/>
    <rect x="29" y="55" width="1" height="1" fill="#000000"/>
    <rect x="30" y="55" width="1" height="1" fill="#000000"/>
    <rect x="31" y="55" width="1" height="1" fill="#000000"/>
    <rect x="32" y="55" width="1" height="1" fill="#000000"/>
    <rect x="33" y="55" width="1" height="1" fill="#000000"/>
    <rect x="34" y="55" width="1" height="1" fill="#000000"/>
    <rect x="35" y="55" width="1" height="1" fill="#000000"/>
    <rect x="36" y="55" width="1" height="1" fill="#000000"/>
    <rect x="37" y="55" width="1" height="1" fill="#000000"/>
    <rect x="26" y="56" width="1" height="1" fill="#383838"/>
    <rect x="27" y="56" width="1" height="1" fill="#000000"/>
    <rect x="28" y="56" width="1" height="1" fill="#000000"/>
    <rect x="29" y="56" width="1" height="1" fill="#000000"/>
    <rect x="30" y="56" width="1" height="1" fill="#000000"/>
    <rect x="31" y="56" width="1" height="1" fill="#000000"/>
    <rect x="32" y="56" width="1" height="1" fill="#000000"/>
    <rect x="33" y="56" width="1" height="1" fill="#000000"/>
    <rect x="34" y="56" width="1" height="1" fill="#000000"/>
    <rect x="35" y="56" width="1" height="1" fill="#000000"/>
    <rect x="36" y="56" width="1" height="1" fill="#000000"/>
    <rect x="37" y="56" width="1" height="1" fill="#000000"/>
    <rect x="27" y="57" width="1" height="1" fill="#383838"/>
    <rect x="28" y="57" width="1" height="1" fill="#000000"/>
    <rect x="29" y="57" width="1" height="1" fill="#000000"/>
    <rect x="30" y="57" width="1" height="1" fill="#000000"/>
    <rect x="31" y="57" width="1" height="1" fill="#000000"/>
    <rect x="32" y="57" width="1" height="1" fill="#000000"/>
    <rect x="33" y="57" width="1" height="1" fill="#000000"/>
    <rect x="34" y="57" width="1" height="1" fill="#000000"/>
    <rect x="35" y="57" width="1" height="1" fill="#000000"/>
    <rect x="36" y="57" width="1" height="1" fill="#000000"/>
    <rect x="27" y="58" width="1" height="1" fill="#383838"/>
    <rect x="28" y="58" width="1" height="1" fill="#000000"/>
    <rect x="29" y="58" width="1" height="1" fill="#000000"/>
    <rect x="30" y="58" width="1" height="1" fill="#000000"/>
    <rect x="31" y="58" width="1" height="1" fill="#000000"/>
    <rect x="32" y="58" width="1" height="1" fill="#000000"/>
    <rect x="33" y="58" width="1" height="1" fill="#000000"/>
    <rect x="34" y="58" width="1" height="1" fill="#000000"/>
    <rect x="35" y="58" width="1" height="1" fill="#000000"/>
    <rect x="36" y="58" width="1" height="1" fill="#000000"/>
    <rect x="28" y="59" width="1" height="1" fill="#383838"/>
    <rect x="29" y="59" width="1" height="1" fill="#000000"/>
    <rect x="30" y="59" width="1" height="1" fill="#000000"/>
    <rect x="31" y="59" width="1" height="1" fill="#000000"/>
    <rect x="32" y="59" width="1" height="1" fill="#000000"/>
    <rect x="33" y="59" width="1" height="1" fill="#000000"/>
    <rect x="34" y="59" width="1" height="1" fill="#000000"/>
    <rect x="35" y="59" width="1" height="1" fill="#000000"/>
    <rect x="30" y="60" width="1" height="1" fill="#383838"/>
    <rect x="31" y="60" width="1" height="1" fill="#383838"/>
    <rect x="32" y="60" width="1" height="1" fill="#383838"/>
    <rect x="33" y="60" width="1" height="1" fill="#383838"/>
</svg>