<?xml version="1.0" encoding="UTF-8" ?>
<!--
  - Copyright Notice for SwtPra10
  - Copyright (c) at ThunderGames | SwtPra10 2021
  - File created on 15.12.21, 19:20 by Carina Latest changes made by Carina on 15.12.21, 19:19 All contents of "path_northwest.svg" are protected by copyright. The copyright law, unless expressly indicated otherwise, is
  - at ThunderGames | SwtPra10. All rights reserved
  - Any type of duplication, distribution, rental, sale, award,
  - Public accessibility or other use
  - requires the express written consent of ThunderGames | SwtPra10.
  -->

<svg version="1.1" width="64" height="64" xmlns="http://www.w3.org/2000/svg" shape-rendering="crispEdges">
    <rect x="30" y="10" width="1" height="1" fill="#383838"/>
    <rect x="31" y="10" width="1" height="1" fill="#383838"/>
    <rect x="32" y="10" width="1" height="1" fill="#383838"/>
    <rect x="33" y="10" width="1" height="1" fill="#383838"/>
    <rect x="28" y="11" width="1" height="1" fill="#383838"/>
    <rect x="29" y="11" width="1" height="1" fill="#000000"/>
    <rect x="30" y="11" width="1" height="1" fill="#000000"/>
    <rect x="31" y="11" width="1" height="1" fill="#000000"/>
    <rect x="32" y="11" width="1" height="1" fill="#000000"/>
    <rect x="33" y="11" width="1" height="1" fill="#000000"/>
    <rect x="34" y="11" width="1" height="1" fill="#000000"/>
    <rect x="35" y="11" width="1" height="1" fill="#000000"/>
    <rect x="27" y="12" width="1" height="1" fill="#383838"/>
    <rect x="28" y="12" width="1" height="1" fill="#000000"/>
    <rect x="29" y="12" width="1" height="1" fill="#000000"/>
    <rect x="30" y="12" width="1" height="1" fill="#000000"/>
    <rect x="31" y="12" width="1" height="1" fill="#000000"/>
    <rect x="32" y="12" width="1" height="1" fill="#000000"/>
    <rect x="33" y="12" width="1" height="1" fill="#000000"/>
    <rect x="34" y="12" width="1" height="1" fill="#000000"/>
    <rect x="35" y="12" width="1" height="1" fill="#000000"/>
    <rect x="36" y="12" width="1" height="1" fill="#000000"/>
    <rect x="27" y="13" width="1" height="1" fill="#383838"/>
    <rect x="28" y="13" width="1" height="1" fill="#000000"/>
    <rect x="29" y="13" width="1" height="1" fill="#000000"/>
    <rect x="30" y="13" width="1" height="1" fill="#000000"/>
    <rect x="31" y="13" width="1" height="1" fill="#000000"/>
    <rect x="32" y="13" width="1" height="1" fill="#000000"/>
    <rect x="33" y="13" width="1" height="1" fill="#000000"/>
    <rect x="34" y="13" width="1" height="1" fill="#000000"/>
    <rect x="35" y="13" width="1" height="1" fill="#000000"/>
    <rect x="36" y="13" width="1" height="1" fill="#000000"/>
    <rect x="26" y="14" width="1" height="1" fill="#383838"/>
    <rect x="27" y="14" width="1" height="1" fill="#000000"/>
    <rect x="28" y="14" width="1" height="1" fill="#000000"/>
    <rect x="29" y="14" width="1" height="1" fill="#000000"/>
    <rect x="30" y="14" width="1" height="1" fill="#000000"/>
    <rect x="31" y="14" width="1" height="1" fill="#000000"/>
    <rect x="32" y="14" width="1" height="1" fill="#000000"/>
    <rect x="33" y="14" width="1" height="1" fill="#000000"/>
    <rect x="34" y="14" width="1" height="1" fill="#000000"/>
    <rect x="35" y="14" width="1" height="1" fill="#000000"/>
    <rect x="36" y="14" width="1" height="1" fill="#000000"/>
    <rect x="37" y="14" width="1" height="1" fill="#000000"/>
    <rect x="26" y="15" width="1" height="1" fill="#383838"/>
    <rect x="27" y="15" width="1" height="1" fill="#000000"/>
    <rect x="28" y="15" width="1" height="1" fill="#000000"/>
    <rect x="29" y="15" width="1" height="1" fill="#000000"/>
    <rect x="30" y="15" width="1" height="1" fill="#000000"/>
    <rect x="31" y="15" width="1" height="1" fill="#000000"/>
    <rect x="32" y="15" width="1" height="1" fill="#000000"/>
    <rect x="33" y="15" width="1" height="1" fill="#000000"/>
    <rect x="34" y="15" width="1" height="1" fill="#000000"/>
    <rect x="35" y="15" width="1" height="1" fill="#000000"/>
    <rect x="36" y="15" width="1" height="1" fill="#000000"/>
    <rect x="37" y="15" width="1" height="1" fill="#000000"/>
    <rect x="38" y="15" width="1" height="1" fill="#383838"/>
    <rect x="39" y="15" width="1" height="1" fill="#383838"/>
    <rect x="40" y="15" width="1" height="1" fill="#383838"/>
    <rect x="41" y="15" width="1" height="1" fill="#383838"/>
    <rect x="42" y="15" width="1" height="1" fill="#383838"/>
    <rect x="43" y="15" width="1" height="1" fill="#383838"/>
    <rect x="47" y="15" width="1" height="1" fill="#383838"/>
    <rect x="48" y="15" width="1" height="1" fill="#383838"/>
    <rect x="49" y="15" width="1" height="1" fill="#383838"/>
    <rect x="50" y="15" width="1" height="1" fill="#383838"/>
    <rect x="51" y="15" width="1" height="1" fill="#383838"/>
    <rect x="52" y="15" width="1" height="1" fill="#383838"/>
    <rect x="53" y="15" width="1" height="1" fill="#383838"/>
    <rect x="54" y="15" width="1" height="1" fill="#383838"/>
    <rect x="55" y="15" width="1" height="1" fill="#383838"/>
    <rect x="56" y="15" width="1" height="1" fill="#383838"/>
    <rect x="26" y="16" width="1" height="1" fill="#383838"/>
    <rect x="27" y="16" width="1" height="1" fill="#000000"/>
    <rect x="28" y="16" width="1" height="1" fill="#000000"/>
    <rect x="29" y="16" width="1" height="1" fill="#000000"/>
    <rect x="30" y="16" width="1" height="1" fill="#000000"/>
    <rect x="31" y="16" width="1" height="1" fill="#000000"/>
    <rect x="32" y="16" width="1" height="1" fill="#000000"/>
    <rect x="33" y="16" width="1" height="1" fill="#000000"/>
    <rect x="34" y="16" width="1" height="1" fill="#000000"/>
    <rect x="35" y="16" width="1" height="1" fill="#000000"/>
    <rect x="36" y="16" width="1" height="1" fill="#000000"/>
    <rect x="37" y="16" width="1" height="1" fill="#000000"/>
    <rect x="38" y="16" width="1" height="1" fill="#000000"/>
    <rect x="39" y="16" width="1" height="1" fill="#000000"/>
    <rect x="40" y="16" width="1" height="1" fill="#000000"/>
    <rect x="41" y="16" width="1" height="1" fill="#000000"/>
    <rect x="42" y="16" width="1" height="1" fill="#000000"/>
    <rect x="43" y="16" width="1" height="1" fill="#000000"/>
    <rect x="47" y="16" width="1" height="1" fill="#000000"/>
    <rect x="48" y="16" width="1" height="1" fill="#000000"/>
    <rect x="49" y="16" width="1" height="1" fill="#000000"/>
    <rect x="50" y="16" width="1" height="1" fill="#000000"/>
    <rect x="51" y="16" width="1" height="1" fill="#000000"/>
    <rect x="52" y="16" width="1" height="1" fill="#000000"/>
    <rect x="53" y="16" width="1" height="1" fill="#000000"/>
    <rect x="54" y="16" width="1" height="1" fill="#000000"/>
    <rect x="55" y="16" width="1" height="1" fill="#000000"/>
    <rect x="56" y="16" width="1" height="1" fill="#000000"/>
    <rect x="26" y="17" width="1" height="1" fill="#383838"/>
    <rect x="27" y="17" width="1" height="1" fill="#000000"/>
    <rect x="28" y="17" width="1" height="1" fill="#000000"/>
    <rect x="29" y="17" width="1" height="1" fill="#000000"/>
    <rect x="30" y="17" width="1" height="1" fill="#000000"/>
    <rect x="31" y="17" width="1" height="1" fill="#000000"/>
    <rect x="32" y="17" width="1" height="1" fill="#000000"/>
    <rect x="33" y="17" width="1" height="1" fill="#000000"/>
    <rect x="34" y="17" width="1" height="1" fill="#000000"/>
    <rect x="35" y="17" width="1" height="1" fill="#000000"/>
    <rect x="36" y="17" width="1" height="1" fill="#000000"/>
    <rect x="37" y="17" width="1" height="1" fill="#000000"/>
    <rect x="27" y="18" width="1" height="1" fill="#383838"/>
    <rect x="28" y="18" width="1" height="1" fill="#000000"/>
    <rect x="29" y="18" width="1" height="1" fill="#000000"/>
    <rect x="30" y="18" width="1" height="1" fill="#000000"/>
    <rect x="31" y="18" width="1" height="1" fill="#000000"/>
    <rect x="32" y="18" width="1" height="1" fill="#000000"/>
    <rect x="33" y="18" width="1" height="1" fill="#000000"/>
    <rect x="34" y="18" width="1" height="1" fill="#000000"/>
    <rect x="35" y="18" width="1" height="1" fill="#000000"/>
    <rect x="36" y="18" width="1" height="1" fill="#000000"/>
    <rect x="27" y="19" width="1" height="1" fill="#383838"/>
    <rect x="28" y="19" width="1" height="1" fill="#000000"/>
    <rect x="29" y="19" width="1" height="1" fill="#000000"/>
    <rect x="30" y="19" width="1" height="1" fill="#000000"/>
    <rect x="31" y="19" width="1" height="1" fill="#000000"/>
    <rect x="32" y="19" width="1" height="1" fill="#000000"/>
    <rect x="33" y="19" width="1" height="1" fill="#000000"/>
    <rect x="34" y="19" width="1" height="1" fill="#000000"/>
    <rect x="35" y="19" width="1" height="1" fill="#000000"/>
    <rect x="36" y="19" width="1" height="1" fill="#000000"/>
    <rect x="28" y="20" width="1" height="1" fill="#383838"/>
    <rect x="29" y="20" width="1" height="1" fill="#383838"/>
    <rect x="30" y="20" width="1" height="1" fill="#000000"/>
    <rect x="31" y="20" width="1" height="1" fill="#000000"/>
    <rect x="32" y="20" width="1" height="1" fill="#000000"/>
    <rect x="33" y="20" width="1" height="1" fill="#000000"/>
    <rect x="34" y="20" width="1" height="1" fill="#000000"/>
    <rect x="35" y="20" width="1" height="1" fill="#000000"/>
    <rect x="27" y="21" width="1" height="1" fill="#383838"/>
    <rect x="28" y="21" width="1" height="1" fill="#000000"/>
    <rect x="30" y="21" width="1" height="1" fill="#383838"/>
    <rect x="31" y="21" width="1" height="1" fill="#383838"/>
    <rect x="32" y="21" width="1" height="1" fill="#383838"/>
    <rect x="33" y="21" width="1" height="1" fill="#383838"/>
    <rect x="35" y="21" width="1" height="1" fill="#000000"/>
    <rect x="36" y="21" width="1" height="1" fill="#000000"/>
    <rect x="27" y="22" width="1" height="1" fill="#383838"/>
    <rect x="28" y="22" width="1" height="1" fill="#000000"/>
    <rect x="35" y="22" width="1" height="1" fill="#383838"/>
    <rect x="36" y="22" width="1" height="1" fill="#000000"/>
    <rect x="26" y="23" width="1" height="1" fill="#383838"/>
    <rect x="27" y="23" width="1" height="1" fill="#000000"/>
    <rect x="28" y="23" width="1" height="1" fill="#000000"/>
    <rect x="35" y="23" width="1" height="1" fill="#383838"/>
    <rect x="36" y="23" width="1" height="1" fill="#000000"/>
    <rect x="37" y="23" width="1" height="1" fill="#000000"/>
    <rect x="25" y="24" width="1" height="1" fill="#383838"/>
    <rect x="26" y="24" width="1" height="1" fill="#000000"/>
    <rect x="27" y="24" width="1" height="1" fill="#000000"/>
    <rect x="36" y="24" width="1" height="1" fill="#383838"/>
    <rect x="37" y="24" width="1" height="1" fill="#000000"/>
    <rect x="38" y="24" width="1" height="1" fill="#000000"/>
    <rect x="25" y="25" width="1" height="1" fill="#383838"/>
    <rect x="26" y="25" width="1" height="1" fill="#000000"/>
    <rect x="37" y="25" width="1" height="1" fill="#383838"/>
    <rect x="38" y="25" width="1" height="1" fill="#000000"/>
    <rect x="24" y="26" width="1" height="1" fill="#383838"/>
    <rect x="25" y="26" width="1" height="1" fill="#000000"/>
    <rect x="26" y="26" width="1" height="1" fill="#000000"/>
    <rect x="37" y="26" width="1" height="1" fill="#383838"/>
    <rect x="38" y="26" width="1" height="1" fill="#000000"/>
    <rect x="39" y="26" width="1" height="1" fill="#000000"/>
    <rect x="24" y="27" width="1" height="1" fill="#383838"/>
    <rect x="25" y="27" width="1" height="1" fill="#000000"/>
    <rect x="38" y="27" width="1" height="1" fill="#383838"/>
    <rect x="39" y="27" width="1" height="1" fill="#000000"/>
    <rect x="25" y="28" width="1" height="1" fill="#000000"/>
    <rect x="38" y="28" width="1" height="1" fill="#383838"/>
    <rect x="22" y="30" width="1" height="1" fill="#383838"/>
    <rect x="41" y="30" width="1" height="1" fill="#000000"/>
    <rect x="21" y="31" width="1" height="1" fill="#383838"/>
    <rect x="22" y="31" width="1" height="1" fill="#000000"/>
    <rect x="23" y="31" width="1" height="1" fill="#000000"/>
    <rect x="40" y="31" width="1" height="1" fill="#383838"/>
    <rect x="41" y="31" width="1" height="1" fill="#000000"/>
    <rect x="42" y="31" width="1" height="1" fill="#000000"/>
    <rect x="21" y="32" width="1" height="1" fill="#383838"/>
    <rect x="22" y="32" width="1" height="1" fill="#000000"/>
    <rect x="41" y="32" width="1" height="1" fill="#383838"/>
    <rect x="42" y="32" width="1" height="1" fill="#000000"/>
    <rect x="20" y="33" width="1" height="1" fill="#383838"/>
    <rect x="21" y="33" width="1" height="1" fill="#000000"/>
    <rect x="22" y="33" width="1" height="1" fill="#000000"/>
    <rect x="41" y="33" width="1" height="1" fill="#383838"/>
    <rect x="42" y="33" width="1" height="1" fill="#000000"/>
    <rect x="43" y="33" width="1" height="1" fill="#000000"/>
    <rect x="19" y="34" width="1" height="1" fill="#383838"/>
    <rect x="20" y="34" width="1" height="1" fill="#000000"/>
    <rect x="21" y="34" width="1" height="1" fill="#000000"/>
    <rect x="42" y="34" width="1" height="1" fill="#383838"/>
    <rect x="43" y="34" width="1" height="1" fill="#000000"/>
    <rect x="44" y="34" width="1" height="1" fill="#000000"/>
    <rect x="19" y="35" width="1" height="1" fill="#383838"/>
    <rect x="20" y="35" width="1" height="1" fill="#000000"/>
    <rect x="43" y="35" width="1" height="1" fill="#383838"/>
    <rect x="44" y="35" width="1" height="1" fill="#000000"/>
    <rect x="18" y="36" width="1" height="1" fill="#383838"/>
    <rect x="19" y="36" width="1" height="1" fill="#000000"/>
    <rect x="20" y="36" width="1" height="1" fill="#000000"/>
    <rect x="43" y="36" width="1" height="1" fill="#383838"/>
    <rect x="44" y="36" width="1" height="1" fill="#000000"/>
    <rect x="45" y="36" width="1" height="1" fill="#000000"/>
    <rect x="17" y="37" width="1" height="1" fill="#383838"/>
    <rect x="18" y="37" width="1" height="1" fill="#000000"/>
    <rect x="19" y="37" width="1" height="1" fill="#000000"/>
    <rect x="44" y="37" width="1" height="1" fill="#383838"/>
    <rect x="45" y="37" width="1" height="1" fill="#000000"/>
    <rect x="46" y="37" width="1" height="1" fill="#000000"/>
    <rect x="17" y="38" width="1" height="1" fill="#383838"/>
    <rect x="18" y="38" width="1" height="1" fill="#000000"/>
    <rect x="45" y="38" width="1" height="1" fill="#383838"/>
    <rect x="46" y="38" width="1" height="1" fill="#000000"/>
    <rect x="17" y="39" width="1" height="1" fill="#383838"/>
    <rect x="18" y="39" width="1" height="1" fill="#000000"/>
    <rect x="45" y="39" width="1" height="1" fill="#383838"/>
    <rect x="46" y="39" width="1" height="1" fill="#000000"/>
    <rect x="14" y="42" width="1" height="1" fill="#383838"/>
    <rect x="15" y="42" width="1" height="1" fill="#000000"/>
    <rect x="48" y="42" width="1" height="1" fill="#383838"/>
    <rect x="49" y="42" width="1" height="1" fill="#000000"/>
    <rect x="14" y="43" width="1" height="1" fill="#383838"/>
    <rect x="15" y="43" width="1" height="1" fill="#000000"/>
    <rect x="48" y="43" width="1" height="1" fill="#383838"/>
    <rect x="49" y="43" width="1" height="1" fill="#000000"/>
    <rect x="13" y="44" width="1" height="1" fill="#383838"/>
    <rect x="14" y="44" width="1" height="1" fill="#000000"/>
    <rect x="15" y="44" width="1" height="1" fill="#000000"/>
    <rect x="48" y="44" width="1" height="1" fill="#383838"/>
    <rect x="49" y="44" width="1" height="1" fill="#000000"/>
    <rect x="50" y="44" width="1" height="1" fill="#000000"/>
    <rect x="13" y="45" width="1" height="1" fill="#383838"/>
    <rect x="14" y="45" width="1" height="1" fill="#000000"/>
    <rect x="49" y="45" width="1" height="1" fill="#383838"/>
    <rect x="50" y="45" width="1" height="1" fill="#000000"/>
    <rect x="12" y="46" width="1" height="1" fill="#383838"/>
    <rect x="13" y="46" width="1" height="1" fill="#000000"/>
    <rect x="14" y="46" width="1" height="1" fill="#000000"/>
    <rect x="49" y="46" width="1" height="1" fill="#383838"/>
    <rect x="50" y="46" width="1" height="1" fill="#000000"/>
    <rect x="51" y="46" width="1" height="1" fill="#000000"/>
    <rect x="11" y="47" width="1" height="1" fill="#383838"/>
    <rect x="12" y="47" width="1" height="1" fill="#000000"/>
    <rect x="13" y="47" width="1" height="1" fill="#000000"/>
    <rect x="50" y="47" width="1" height="1" fill="#383838"/>
    <rect x="51" y="47" width="1" height="1" fill="#000000"/>
    <rect x="52" y="47" width="1" height="1" fill="#000000"/>
    <rect x="11" y="48" width="1" height="1" fill="#383838"/>
    <rect x="12" y="48" width="1" height="1" fill="#000000"/>
    <rect x="51" y="48" width="1" height="1" fill="#383838"/>
    <rect x="52" y="48" width="1" height="1" fill="#000000"/>
    <rect x="6" y="49" width="1" height="1" fill="#383838"/>
    <rect x="7" y="49" width="1" height="1" fill="#383838"/>
    <rect x="8" y="49" width="1" height="1" fill="#383838"/>
    <rect x="9" y="49" width="1" height="1" fill="#383838"/>
    <rect x="10" y="49" width="1" height="1" fill="#383838"/>
    <rect x="11" y="49" width="1" height="1" fill="#000000"/>
    <rect x="12" y="49" width="1" height="1" fill="#000000"/>
    <rect x="51" y="49" width="1" height="1" fill="#383838"/>
    <rect x="52" y="49" width="1" height="1" fill="#000000"/>
    <rect x="54" y="49" width="1" height="1" fill="#383838"/>
    <rect x="55" y="49" width="1" height="1" fill="#383838"/>
    <rect x="56" y="49" width="1" height="1" fill="#383838"/>
    <rect x="57" y="49" width="1" height="1" fill="#383838"/>
    <rect x="4" y="50" width="1" height="1" fill="#383838"/>
    <rect x="5" y="50" width="1" height="1" fill="#383838"/>
    <rect x="6" y="50" width="1" height="1" fill="#000000"/>
    <rect x="7" y="50" width="1" height="1" fill="#000000"/>
    <rect x="8" y="50" width="1" height="1" fill="#000000"/>
    <rect x="9" y="50" width="1" height="1" fill="#000000"/>
    <rect x="10" y="50" width="1" height="1" fill="#000000"/>
    <rect x="11" y="50" width="1" height="1" fill="#000000"/>
    <rect x="52" y="50" width="1" height="1" fill="#383838"/>
    <rect x="53" y="50" width="1" height="1" fill="#000000"/>
    <rect x="54" y="50" width="1" height="1" fill="#000000"/>
    <rect x="55" y="50" width="1" height="1" fill="#000000"/>
    <rect x="56" y="50" width="1" height="1" fill="#000000"/>
    <rect x="57" y="50" width="1" height="1" fill="#000000"/>
    <rect x="58" y="50" width="1" height="1" fill="#000000"/>
    <rect x="59" y="50" width="1" height="1" fill="#000000"/>
    <rect x="3" y="51" width="1" height="1" fill="#383838"/>
    <rect x="4" y="51" width="1" height="1" fill="#000000"/>
    <rect x="5" y="51" width="1" height="1" fill="#000000"/>
    <rect x="6" y="51" width="1" height="1" fill="#000000"/>
    <rect x="7" y="51" width="1" height="1" fill="#000000"/>
    <rect x="8" y="51" width="1" height="1" fill="#000000"/>
    <rect x="9" y="51" width="1" height="1" fill="#000000"/>
    <rect x="10" y="51" width="1" height="1" fill="#000000"/>
    <rect x="11" y="51" width="1" height="1" fill="#000000"/>
    <rect x="12" y="51" width="1" height="1" fill="#000000"/>
    <rect x="51" y="51" width="1" height="1" fill="#383838"/>
    <rect x="52" y="51" width="1" height="1" fill="#000000"/>
    <rect x="53" y="51" width="1" height="1" fill="#000000"/>
    <rect x="54" y="51" width="1" height="1" fill="#000000"/>
    <rect x="55" y="51" width="1" height="1" fill="#000000"/>
    <rect x="56" y="51" width="1" height="1" fill="#000000"/>
    <rect x="57" y="51" width="1" height="1" fill="#000000"/>
    <rect x="58" y="51" width="1" height="1" fill="#000000"/>
    <rect x="59" y="51" width="1" height="1" fill="#000000"/>
    <rect x="60" y="51" width="1" height="1" fill="#000000"/>
    <rect x="3" y="52" width="1" height="1" fill="#383838"/>
    <rect x="4" y="52" width="1" height="1" fill="#000000"/>
    <rect x="5" y="52" width="1" height="1" fill="#000000"/>
    <rect x="6" y="52" width="1" height="1" fill="#000000"/>
    <rect x="7" y="52" width="1" height="1" fill="#000000"/>
    <rect x="8" y="52" width="1" height="1" fill="#000000"/>
    <rect x="9" y="52" width="1" height="1" fill="#000000"/>
    <rect x="10" y="52" width="1" height="1" fill="#000000"/>
    <rect x="11" y="52" width="1" height="1" fill="#000000"/>
    <rect x="12" y="52" width="1" height="1" fill="#000000"/>
    <rect x="51" y="52" width="1" height="1" fill="#383838"/>
    <rect x="52" y="52" width="1" height="1" fill="#000000"/>
    <rect x="53" y="52" width="1" height="1" fill="#000000"/>
    <rect x="54" y="52" width="1" height="1" fill="#000000"/>
    <rect x="55" y="52" width="1" height="1" fill="#000000"/>
    <rect x="56" y="52" width="1" height="1" fill="#000000"/>
    <rect x="57" y="52" width="1" height="1" fill="#000000"/>
    <rect x="58" y="52" width="1" height="1" fill="#000000"/>
    <rect x="59" y="52" width="1" height="1" fill="#000000"/>
    <rect x="60" y="52" width="1" height="1" fill="#000000"/>
    <rect x="2" y="53" width="1" height="1" fill="#383838"/>
    <rect x="3" y="53" width="1" height="1" fill="#000000"/>
    <rect x="4" y="53" width="1" height="1" fill="#000000"/>
    <rect x="5" y="53" width="1" height="1" fill="#000000"/>
    <rect x="6" y="53" width="1" height="1" fill="#000000"/>
    <rect x="7" y="53" width="1" height="1" fill="#000000"/>
    <rect x="8" y="53" width="1" height="1" fill="#000000"/>
    <rect x="9" y="53" width="1" height="1" fill="#000000"/>
    <rect x="10" y="53" width="1" height="1" fill="#000000"/>
    <rect x="11" y="53" width="1" height="1" fill="#000000"/>
    <rect x="12" y="53" width="1" height="1" fill="#000000"/>
    <rect x="13" y="53" width="1" height="1" fill="#000000"/>
    <rect x="50" y="53" width="1" height="1" fill="#383838"/>
    <rect x="51" y="53" width="1" height="1" fill="#000000"/>
    <rect x="52" y="53" width="1" height="1" fill="#000000"/>
    <rect x="53" y="53" width="1" height="1" fill="#000000"/>
    <rect x="54" y="53" width="1" height="1" fill="#000000"/>
    <rect x="55" y="53" width="1" height="1" fill="#000000"/>
    <rect x="56" y="53" width="1" height="1" fill="#000000"/>
    <rect x="57" y="53" width="1" height="1" fill="#000000"/>
    <rect x="58" y="53" width="1" height="1" fill="#000000"/>
    <rect x="59" y="53" width="1" height="1" fill="#000000"/>
    <rect x="60" y="53" width="1" height="1" fill="#000000"/>
    <rect x="61" y="53" width="1" height="1" fill="#000000"/>
    <rect x="2" y="54" width="1" height="1" fill="#383838"/>
    <rect x="3" y="54" width="1" height="1" fill="#000000"/>
    <rect x="4" y="54" width="1" height="1" fill="#000000"/>
    <rect x="5" y="54" width="1" height="1" fill="#000000"/>
    <rect x="6" y="54" width="1" height="1" fill="#000000"/>
    <rect x="7" y="54" width="1" height="1" fill="#000000"/>
    <rect x="8" y="54" width="1" height="1" fill="#000000"/>
    <rect x="9" y="54" width="1" height="1" fill="#000000"/>
    <rect x="10" y="54" width="1" height="1" fill="#000000"/>
    <rect x="11" y="54" width="1" height="1" fill="#000000"/>
    <rect x="12" y="54" width="1" height="1" fill="#000000"/>
    <rect x="13" y="54" width="1" height="1" fill="#000000"/>
    <rect x="14" y="54" width="1" height="1" fill="#383838"/>
    <rect x="15" y="54" width="1" height="1" fill="#383838"/>
    <rect x="16" y="54" width="1" height="1" fill="#383838"/>
    <rect x="17" y="54" width="1" height="1" fill="#383838"/>
    <rect x="18" y="54" width="1" height="1" fill="#383838"/>
    <rect x="19" y="54" width="1" height="1" fill="#383838"/>
    <rect x="20" y="54" width="1" height="1" fill="#383838"/>
    <rect x="24" y="54" width="1" height="1" fill="#383838"/>
    <rect x="25" y="54" width="1" height="1" fill="#383838"/>
    <rect x="26" y="54" width="1" height="1" fill="#383838"/>
    <rect x="27" y="54" width="1" height="1" fill="#383838"/>
    <rect x="28" y="54" width="1" height="1" fill="#383838"/>
    <rect x="29" y="54" width="1" height="1" fill="#383838"/>
    <rect x="30" y="54" width="1" height="1" fill="#383838"/>
    <rect x="31" y="54" width="1" height="1" fill="#383838"/>
    <rect x="32" y="54" width="1" height="1" fill="#383838"/>
    <rect x="33" y="54" width="1" height="1" fill="#383838"/>
    <rect x="34" y="54" width="1" height="1" fill="#383838"/>
    <rect x="35" y="54" width="1" height="1" fill="#383838"/>
    <rect x="36" y="54" width="1" height="1" fill="#383838"/>
    <rect x="37" y="54" width="1" height="1" fill="#383838"/>
    <rect x="38" y="54" width="1" height="1" fill="#383838"/>
    <rect x="39" y="54" width="1" height="1" fill="#383838"/>
    <rect x="43" y="54" width="1" height="1" fill="#383838"/>
    <rect x="44" y="54" width="1" height="1" fill="#383838"/>
    <rect x="45" y="54" width="1" height="1" fill="#383838"/>
    <rect x="46" y="54" width="1" height="1" fill="#383838"/>
    <rect x="47" y="54" width="1" height="1" fill="#383838"/>
    <rect x="48" y="54" width="1" height="1" fill="#383838"/>
    <rect x="49" y="54" width="1" height="1" fill="#383838"/>
    <rect x="50" y="54" width="1" height="1" fill="#383838"/>
    <rect x="51" y="54" width="1" height="1" fill="#000000"/>
    <rect x="52" y="54" width="1" height="1" fill="#000000"/>
    <rect x="53" y="54" width="1" height="1" fill="#000000"/>
    <rect x="54" y="54" width="1" height="1" fill="#000000"/>
    <rect x="55" y="54" width="1" height="1" fill="#000000"/>
    <rect x="56" y="54" width="1" height="1" fill="#000000"/>
    <rect x="57" y="54" width="1" height="1" fill="#000000"/>
    <rect x="58" y="54" width="1" height="1" fill="#000000"/>
    <rect x="59" y="54" width="1" height="1" fill="#000000"/>
    <rect x="60" y="54" width="1" height="1" fill="#000000"/>
    <rect x="61" y="54" width="1" height="1" fill="#000000"/>
    <rect x="2" y="55" width="1" height="1" fill="#383838"/>
    <rect x="3" y="55" width="1" height="1" fill="#000000"/>
    <rect x="4" y="55" width="1" height="1" fill="#000000"/>
    <rect x="5" y="55" width="1" height="1" fill="#000000"/>
    <rect x="6" y="55" width="1" height="1" fill="#000000"/>
    <rect x="7" y="55" width="1" height="1" fill="#000000"/>
    <rect x="8" y="55" width="1" height="1" fill="#000000"/>
    <rect x="9" y="55" width="1" height="1" fill="#000000"/>
    <rect x="10" y="55" width="1" height="1" fill="#000000"/>
    <rect x="11" y="55" width="1" height="1" fill="#000000"/>
    <rect x="12" y="55" width="1" height="1" fill="#000000"/>
    <rect x="13" y="55" width="1" height="1" fill="#000000"/>
    <rect x="14" y="55" width="1" height="1" fill="#000000"/>
    <rect x="15" y="55" width="1" height="1" fill="#000000"/>
    <rect x="16" y="55" width="1" height="1" fill="#000000"/>
    <rect x="17" y="55" width="1" height="1" fill="#000000"/>
    <rect x="18" y="55" width="1" height="1" fill="#000000"/>
    <rect x="19" y="55" width="1" height="1" fill="#000000"/>
    <rect x="20" y="55" width="1" height="1" fill="#000000"/>
    <rect x="24" y="55" width="1" height="1" fill="#000000"/>
    <rect x="25" y="55" width="1" height="1" fill="#000000"/>
    <rect x="26" y="55" width="1" height="1" fill="#000000"/>
    <rect x="27" y="55" width="1" height="1" fill="#000000"/>
    <rect x="28" y="55" width="1" height="1" fill="#000000"/>
    <rect x="29" y="55" width="1" height="1" fill="#000000"/>
    <rect x="30" y="55" width="1" height="1" fill="#000000"/>
    <rect x="31" y="55" width="1" height="1" fill="#000000"/>
    <rect x="32" y="55" width="1" height="1" fill="#000000"/>
    <rect x="33" y="55" width="1" height="1" fill="#000000"/>
    <rect x="34" y="55" width="1" height="1" fill="#000000"/>
    <rect x="35" y="55" width="1" height="1" fill="#000000"/>
    <rect x="36" y="55" width="1" height="1" fill="#000000"/>
    <rect x="37" y="55" width="1" height="1" fill="#000000"/>
    <rect x="38" y="55" width="1" height="1" fill="#000000"/>
    <rect x="39" y="55" width="1" height="1" fill="#000000"/>
    <rect x="43" y="55" width="1" height="1" fill="#000000"/>
    <rect x="44" y="55" width="1" height="1" fill="#000000"/>
    <rect x="45" y="55" width="1" height="1" fill="#000000"/>
    <rect x="46" y="55" width="1" height="1" fill="#000000"/>
    <rect x="47" y="55" width="1" height="1" fill="#000000"/>
    <rect x="48" y="55" width="1" height="1" fill="#000000"/>
    <rect x="49" y="55" width="1" height="1" fill="#000000"/>
    <rect x="50" y="55" width="1" height="1" fill="#383838"/>
    <rect x="51" y="55" width="1" height="1" fill="#000000"/>
    <rect x="52" y="55" width="1" height="1" fill="#000000"/>
    <rect x="53" y="55" width="1" height="1" fill="#000000"/>
    <rect x="54" y="55" width="1" height="1" fill="#000000"/>
    <rect x="55" y="55" width="1" height="1" fill="#000000"/>
    <rect x="56" y="55" width="1" height="1" fill="#000000"/>
    <rect x="57" y="55" width="1" height="1" fill="#000000"/>
    <rect x="58" y="55" width="1" height="1" fill="#000000"/>
    <rect x="59" y="55" width="1" height="1" fill="#000000"/>
    <rect x="60" y="55" width="1" height="1" fill="#000000"/>
    <rect x="61" y="55" width="1" height="1" fill="#000000"/>
    <rect x="2" y="56" width="1" height="1" fill="#383838"/>
    <rect x="3" y="56" width="1" height="1" fill="#000000"/>
    <rect x="4" y="56" width="1" height="1" fill="#000000"/>
    <rect x="5" y="56" width="1" height="1" fill="#000000"/>
    <rect x="6" y="56" width="1" height="1" fill="#000000"/>
    <rect x="7" y="56" width="1" height="1" fill="#000000"/>
    <rect x="8" y="56" width="1" height="1" fill="#000000"/>
    <rect x="9" y="56" width="1" height="1" fill="#000000"/>
    <rect x="10" y="56" width="1" height="1" fill="#000000"/>
    <rect x="11" y="56" width="1" height="1" fill="#000000"/>
    <rect x="12" y="56" width="1" height="1" fill="#000000"/>
    <rect x="13" y="56" width="1" height="1" fill="#000000"/>
    <rect x="50" y="56" width="1" height="1" fill="#383838"/>
    <rect x="51" y="56" width="1" height="1" fill="#000000"/>
    <rect x="52" y="56" width="1" height="1" fill="#000000"/>
    <rect x="53" y="56" width="1" height="1" fill="#000000"/>
    <rect x="54" y="56" width="1" height="1" fill="#000000"/>
    <rect x="55" y="56" width="1" height="1" fill="#000000"/>
    <rect x="56" y="56" width="1" height="1" fill="#000000"/>
    <rect x="57" y="56" width="1" height="1" fill="#000000"/>
    <rect x="58" y="56" width="1" height="1" fill="#000000"/>
    <rect x="59" y="56" width="1" height="1" fill="#000000"/>
    <rect x="60" y="56" width="1" height="1" fill="#000000"/>
    <rect x="61" y="56" width="1" height="1" fill="#000000"/>
    <rect x="3" y="57" width="1" height="1" fill="#383838"/>
    <rect x="4" y="57" width="1" height="1" fill="#000000"/>
    <rect x="5" y="57" width="1" height="1" fill="#000000"/>
    <rect x="6" y="57" width="1" height="1" fill="#000000"/>
    <rect x="7" y="57" width="1" height="1" fill="#000000"/>
    <rect x="8" y="57" width="1" height="1" fill="#000000"/>
    <rect x="9" y="57" width="1" height="1" fill="#000000"/>
    <rect x="10" y="57" width="1" height="1" fill="#000000"/>
    <rect x="11" y="57" width="1" height="1" fill="#000000"/>
    <rect x="12" y="57" width="1" height="1" fill="#000000"/>
    <rect x="51" y="57" width="1" height="1" fill="#383838"/>
    <rect x="52" y="57" width="1" height="1" fill="#000000"/>
    <rect x="53" y="57" width="1" height="1" fill="#000000"/>
    <rect x="54" y="57" width="1" height="1" fill="#000000"/>
    <rect x="55" y="57" width="1" height="1" fill="#000000"/>
    <rect x="56" y="57" width="1" height="1" fill="#000000"/>
    <rect x="57" y="57" width="1" height="1" fill="#000000"/>
    <rect x="58" y="57" width="1" height="1" fill="#000000"/>
    <rect x="59" y="57" width="1" height="1" fill="#000000"/>
    <rect x="60" y="57" width="1" height="1" fill="#000000"/>
    <rect x="3" y="58" width="1" height="1" fill="#383838"/>
    <rect x="4" y="58" width="1" height="1" fill="#000000"/>
    <rect x="5" y="58" width="1" height="1" fill="#000000"/>
    <rect x="6" y="58" width="1" height="1" fill="#000000"/>
    <rect x="7" y="58" width="1" height="1" fill="#000000"/>
    <rect x="8" y="58" width="1" height="1" fill="#000000"/>
    <rect x="9" y="58" width="1" height="1" fill="#000000"/>
    <rect x="10" y="58" width="1" height="1" fill="#000000"/>
    <rect x="11" y="58" width="1" height="1" fill="#000000"/>
    <rect x="12" y="58" width="1" height="1" fill="#000000"/>
    <rect x="51" y="58" width="1" height="1" fill="#383838"/>
    <rect x="52" y="58" width="1" height="1" fill="#000000"/>
    <rect x="53" y="58" width="1" height="1" fill="#000000"/>
    <rect x="54" y="58" width="1" height="1" fill="#000000"/>
    <rect x="55" y="58" width="1" height="1" fill="#000000"/>
    <rect x="56" y="58" width="1" height="1" fill="#000000"/>
    <rect x="57" y="58" width="1" height="1" fill="#000000"/>
    <rect x="58" y="58" width="1" height="1" fill="#000000"/>
    <rect x="59" y="58" width="1" height="1" fill="#000000"/>
    <rect x="60" y="58" width="1" height="1" fill="#000000"/>
    <rect x="4" y="59" width="1" height="1" fill="#383838"/>
    <rect x="5" y="59" width="1" height="1" fill="#383838"/>
    <rect x="6" y="59" width="1" height="1" fill="#000000"/>
    <rect x="7" y="59" width="1" height="1" fill="#000000"/>
    <rect x="8" y="59" width="1" height="1" fill="#000000"/>
    <rect x="9" y="59" width="1" height="1" fill="#000000"/>
    <rect x="10" y="59" width="1" height="1" fill="#000000"/>
    <rect x="11" y="59" width="1" height="1" fill="#000000"/>
    <rect x="52" y="59" width="1" height="1" fill="#383838"/>
    <rect x="53" y="59" width="1" height="1" fill="#383838"/>
    <rect x="54" y="59" width="1" height="1" fill="#000000"/>
    <rect x="55" y="59" width="1" height="1" fill="#000000"/>
    <rect x="56" y="59" width="1" height="1" fill="#000000"/>
    <rect x="57" y="59" width="1" height="1" fill="#000000"/>
    <rect x="58" y="59" width="1" height="1" fill="#000000"/>
    <rect x="59" y="59" width="1" height="1" fill="#000000"/>
    <rect x="6" y="60" width="1" height="1" fill="#383838"/>
    <rect x="7" y="60" width="1" height="1" fill="#383838"/>
    <rect x="8" y="60" width="1" height="1" fill="#383838"/>
    <rect x="9" y="60" width="1" height="1" fill="#383838"/>
    <rect x="54" y="60" width="1" height="1" fill="#383838"/>
    <rect x="55" y="60" width="1" height="1" fill="#383838"/>
    <rect x="56" y="60" width="1" height="1" fill="#383838"/>
    <rect x="57" y="60" width="1" height="1" fill="#383838"/>
</svg>